<svg id="Layer_1" data-name="Layer 1" xmlns="http://www.w3.org/2000/svg" viewBox="0 0 533.39 600"><defs><style>.cls-1{fill:#020202;fill-rule:evenodd;}</style></defs><title>falcon logo head only_v1</title><path class="cls-1" d="M268.8,219.73a143.1,143.1,0,0,0,71.39-54.64l-48.45-32.93A83.6,83.6,0,0,1,145.26,116.6c38.24,29.76,72.42,13,75.48-47.5a120.17,120.17,0,0,0-49.49,19.33l10.92,26.12-29.92-10.18c-2.8,2.92-5.51,6-8.12,9.28-14.52,73.1,55.24,129.91,124.67,106.08Zm309.48,18.85c-.88,8.08-14.9,50.4-17.26,55.68L424.87,169.05,542.69,331.19a521.71,521.71,0,0,1-36.34,57.17L394.91,209.94l80.24,217.13a523.07,523.07,0,0,1-63.32,60.29l-61-249.1,9.84,285.43A517,517,0,0,1,131.72,600c-.37-34.67-4.06-400.62-4.25-400.8L76.82,187.4a43.07,43.07,0,0,0-31.93,5c1.92-35,29.77-62.63,44.72-75.56,10.84-15.19,25.34-37.25,40-48.77C174,33.23,216.38,12.87,265.09,3.25,338.3-11.22,369.1,24.33,420,76.42L578.28,238.58Z" transform="translate(-44.89 0)"/></svg>